<?xml version="1.0" encoding="utf-8"?>
<!-- Generator: Adobe Illustrator 21.1.0, SVG Export Plug-In . SVG Version: 6.00 Build 0)  -->
<svg version="1.1" id="Layer_1" xmlns="http://www.w3.org/2000/svg" xmlns:xlink="http://www.w3.org/1999/xlink" x="0px" y="0px"
	 viewBox="0 0 230 50" style="enable-background:new 0 0 230 50;" xml:space="preserve">
<g>
	<path d="M2.1,0.7h15.2c6.9,0,12,1,15.1,3c3.1,2,4.7,5.1,4.7,9.4c0,2.9-0.7,5.3-2.1,7.2c-1.4,1.9-3.2,3-5.5,3.4v0.3
		c3.1,0.7,5.3,2,6.7,3.9c1.4,1.9,2.1,4.4,2.1,7.6c0,4.5-1.6,7.9-4.8,10.4c-3.2,2.5-7.6,3.7-13.1,3.7H2.1V0.7z M12.5,20h6
		c2.8,0,4.8-0.4,6.1-1.3c1.3-0.9,1.9-2.3,1.9-4.3c0-1.9-0.7-3.2-2.1-4c-1.4-0.8-3.5-1.2-6.5-1.2h-5.4V20z M12.5,28.2V41h6.8
		c2.9,0,5-0.5,6.3-1.6c1.4-1.1,2-2.8,2-5c0-4.1-2.9-6.1-8.7-6.1H12.5z"/>
	<path d="M48.1,49.5V0.7h10.4V41h19.8v8.6H48.1z"/>
	<path d="M116.7,49.5l-3.5-11.6H95.4l-3.5,11.6H80.7L97.9,0.5h12.7l17.3,49.1H116.7z M110.7,29.2c-3.3-10.5-5.1-16.5-5.5-17.9
		c-0.4-1.4-0.7-2.5-0.9-3.3c-0.7,2.9-2.8,9.9-6.3,21.2H110.7z"/>
	<path d="M177.4,49.5h-13.2l-21.3-37h-0.3c0.4,6.5,0.6,11.2,0.6,14v23H134V0.7h13.1l21.2,36.6h0.2c-0.3-6.4-0.5-10.8-0.5-13.5V0.7
		h9.3V49.5z"/>
	<path d="M229,49.5h-11.8l-12.8-20.6l-4.4,3.1v17.4h-10.4V0.7h10.4V23l4.1-5.7l13.2-16.6h11.5l-17,21.6L229,49.5z"/>
</g>
</svg>
